<svg width="96" height="96" viewBox="0 0 96 96" fill="none" xmlns="http://www.w3.org/2000/svg" role="img" aria-labelledby="title desc">
  <title id="title">UFO Files Archive logo mark</title>
  <desc id="desc">Radar rings with a tracked point above a UAP silhouette.</desc>
  <rect width="96" height="96" rx="20" fill="#07111f"/>
  <rect x="1" y="1" width="94" height="94" rx="19" stroke="#67E8F9" stroke-opacity=".26" stroke-width="2"/>
  <circle cx="48" cy="42" r="33" stroke="#67E8F9" stroke-opacity=".92" stroke-width="2.7"/>
  <circle cx="48" cy="42" r="23" stroke="#67E8F9" stroke-opacity=".48" stroke-width="2"/>
  <circle cx="48" cy="42" r="13" stroke="#67E8F9" stroke-opacity=".28" stroke-width="1.8"/>
  <path d="M48 42L70 21" stroke="#DFFBFF" stroke-width="2.6" stroke-linecap="round"/>
  <circle cx="48" cy="42" r="4.3" fill="#67E8F9"/>
  <circle cx="70" cy="21" r="6.2" fill="#67E8F9" stroke="#ECFEFF" stroke-width="2.2"/>
  <circle cx="30" cy="26" r="1.7" fill="#ECFEFF"/>
  <circle cx="76" cy="39" r="1.9" fill="#67E8F9"/>
  <circle cx="20" cy="46" r="1.4" fill="#A7F3D0"/>
  <path d="M30 67C34.5 60.4 39.9 57.2 48 57.2C56.1 57.2 61.5 60.4 66 67" stroke="#ECFEFF" stroke-width="2.6" stroke-linecap="round"/>
  <path d="M22 70C28.3 77.3 37.1 80.8 48 80.8C58.9 80.8 67.7 77.3 74 70C67.7 66.2 58.9 64.3 48 64.3C37.1 64.3 28.3 66.2 22 70Z" fill="#0F2740" stroke="#ECFEFF" stroke-width="2.6" stroke-linejoin="round"/>
  <path d="M35 72.5H61" stroke="#67E8F9" stroke-width="2.6" stroke-linecap="round"/>
  <path d="M40 76H56" stroke="#67E8F9" stroke-opacity=".72" stroke-width="2" stroke-linecap="round"/>
  <path d="M48 80.8V88" stroke="#67E8F9" stroke-opacity=".45" stroke-width="2" stroke-linecap="round"/>
</svg>
